PathFileType  4	(X/Y/Z) C:\Users\antoi\Documents\MyRepositories\mobilecap\ResultsAnalysis
DataRate	CameraRate	NumFrames	NumMarkers	Units	OrigDataRate	OrigDataStartFrame	OrigNumFrames
100.0	100.0	4	51	mm	100.0	62	245
Frame#	Time	r_knee			r_shank_antsup			r_ankle			r_calc			r_5meta			r_toe			L_knee			L_shank_antsup			L_ankle			L_calc			L_5meta			L_toe			r_sh2			r_sh3			r_sh4			L_sh2			L_sh3			r_thigh1			r_thigh2			r_thigh3			r_thigh4			r_thigh5			L_thigh1			L_thigh2			L_thigh3			L_thigh4			r.ASIS			r.PSIS			L.ASIS			L.PSIS			C7			R_Shoulder			L_Shoulder			R_Sternum			L_Sternum			R_humerus			R_elbow_med			R_elbow_lat			R_forearm			R_wrist_radius			R_wrist_ulna			L_humerus			L_elbow_med			L_elbow_lat			L_forearm			L_wrist_radius			L_wrist_ulna			R_HJC			L_HJC			R_HJC_reg			L_HJC_reg			
		X1	Y1	Z1	X2	Y2	Z2	X3	Y3	Z3	X4	Y4	Z4	X5	Y5	Z5	X6	Y6	Z6	X7	Y7	Z7	X8	Y8	Z8	X9	Y9	Z9	X10	Y10	Z10	X11	Y11	Z11	X12	Y12	Z12	X13	Y13	Z13	X14	Y14	Z14	X15	Y15	Z15	X16	Y16	Z16	X17	Y17	Z17	X18	Y18	Z18	X19	Y19	Z19	X20	Y20	Z20	X21	Y21	Z21	X22	Y22	Z22	X23	Y23	Z23	X24	Y24	Z24	X25	Y25	Z25	X26	Y26	Z26	X27	Y27	Z27	X28	Y28	Z28	X29	Y29	Z29	X30	Y30	Z30	X31	Y31	Z31	X32	Y32	Z32	X33	Y33	Z33	X34	Y34	Z34	X35	Y35	Z35	X36	Y36	Z36	X37	Y37	Z37	X38	Y38	Z38	X39	Y39	Z39	X40	Y40	Z40	X41	Y41	Z41	X42	Y42	Z42	X43	Y43	Z43	X44	Y44	Z44	X45	Y45	Z45	X46	Y46	Z46	X47	Y47	Z47	X48	Y48	Z48	X49	Y49	Z49	X50	Y50	Z50	X51	Y51	Z51	

62	0.61000000	-880.23864	761.66000	-431.09031	-908.26193	637.32792	-448.30860	-1187.25136	440.50000	-440.70085	-1268.43210	424.87442	-485.52635	-1084.07878	349.05110	-392.17112	-1040.98324	359.61023	-466.63472	-913.79344	758.51590	-763.97707	-917.75421	642.04432	-734.91868	-1203.21013	433.64918	-725.12507	-1278.88364	422.64638	-675.10093	-1091.09939	344.19851	-757.01509	-1051.49522	359.32052	-688.08101	-982.48512	550.10396	-471.28935	-958.67451	664.08697	-396.03116	-1026.14374	568.40406	-401.41756	-979.64599	687.41574	-785.36575	-1037.40362	579.08219	-784.64826	-865.57257	1014.91617	-443.88956	-828.12310	910.03462	-459.20724	-842.27057	871.74698	-406.14164	-935.91271	976.65062	-361.67124	-893.83178	867.17493	-386.35066	-916.56161	1024.08995	-777.97469	-862.95511	896.08919	-769.91818	-1016.23999	979.70167	-811.00497	-962.44799	852.53238	-796.64098	-943.96183	1204.19634	-441.14150	-1122.59759	1317.12162	-518.90256	-954.72138	1205.26519	-704.72436	-1129.02921	1317.26125	-616.85033	-850.25595	1741.83936	-579.86791	-789.24273	1645.88949	-396.43406	-794.94736	1660.02847	-755.51756	-749.16341	1609.65053	-559.58766	-753.23306	1608.04125	-605.42888	-839.71524	1487.20186	-318.57428	-1016.96284	1324.73064	-308.73303	-966.95950	1339.68209	-241.59481	-915.12140	1170.26180	-247.91353	-910.07987	1049.45059	-241.27999	-935.71391	1046.03047	-208.16622	-853.69686	1505.50785	-846.74546	-1021.47038	1351.69671	-842.53997	-979.61922	1358.64417	-911.96758	-910.58041	1203.75069	-878.00517	-889.89618	1088.43133	-895.43478	-916.22886	1086.13676	-934.17385	-1052.51628	1163.51588	-472.49147	-1062.34742	1152.95922	-685.39510	-1042.48448	1161.97485	-472.31931	-1053.89266	1162.22284	-646.05602	
63	0.62000000	-873.78621	757.97457	-430.80060	-902.95734	633.52417	-448.65650	-1185.32096	442.19459	-440.72336	-1266.58002	426.63124	-486.62299	-1083.46599	349.25021	-392.66481	-1039.87673	359.19301	-467.00986	-908.59986	753.97367	-764.10440	-913.64931	637.53266	-734.62879	-1202.27347	433.20910	-725.00949	-1278.24353	422.70045	-674.86693	-1090.90187	343.74973	-757.11935	-1051.10966	358.88794	-688.15629	-978.47472	547.34830	-471.94010	-953.14973	660.84967	-396.56697	-1022.10388	566.34347	-402.08992	-975.10150	683.50465	-785.11726	-1034.56981	575.99113	-784.29964	-859.37495	1011.30116	-443.38030	-821.63569	906.37936	-458.43245	-836.04951	868.15726	-405.31520	-930.56985	972.57232	-362.26008	-887.78520	863.33276	-386.12600	-910.93893	1019.60096	-778.77774	-857.65799	891.47764	-770.85687	-1010.95919	975.35662	-811.15134	-957.36307	848.21879	-796.89202	-938.39918	1200.03055	-441.53142	-1117.55556	1312.13398	-519.53968	-948.97266	1201.67436	-705.33768	-1123.95609	1312.50462	-617.32093	-846.71149	1738.16370	-579.63422	-784.49388	1642.36035	-396.54892	-790.41235	1656.91639	-755.29659	-744.61573	1606.46764	-559.62035	-748.61091	1604.95729	-605.31203	-834.46943	1483.70486	-318.09378	-1011.19144	1322.03887	-305.94682	-961.71203	1337.46465	-238.53530	-909.75503	1167.81849	-243.92798	-904.20778	1047.32835	-236.25893	-929.89449	1043.84324	-203.39005	-848.17290	1502.84231	-847.38696	-1015.95798	1348.50502	-846.71279	-973.06806	1356.15287	-915.18404	-904.05512	1201.25557	-880.42016	-882.64661	1086.55243	-897.99547	-907.89141	1083.97852	-937.17958	-1046.73610	1158.84693	-473.24858	-1056.27008	1148.70039	-686.18616	-1036.64366	1157.26110	-472.88509	-1048.02552	1157.92085	-646.76670	
64	0.63000000	-868.55113	754.12080	-430.79054	-898.64532	629.32725	-449.34290	-1183.59922	442.08048	-441.55546	-1265.26398	427.20047	-487.86860	-1083.01345	349.19521	-393.09608	-1038.88173	358.71902	-467.43612	-904.47334	749.14776	-764.05415	-910.54475	632.79898	-734.15179	-1201.77535	432.11603	-724.73399	-1278.16529	421.75562	-674.26324	-1090.85830	343.34932	-757.31596	-1050.84962	358.45926	-688.20535	-975.17628	544.15273	-472.67650	-948.48683	657.19728	-397.30535	-1018.73591	563.66246	-402.90200	-971.52852	679.27887	-784.88566	-1032.25683	572.37552	-783.30476	-853.05803	1007.36134	-442.85389	-815.48518	902.33613	-457.68015	-830.63729	864.12127	-404.61411	-925.56110	968.48571	-363.25473	-882.65931	859.45795	-386.13913	-905.24730	1014.94146	-779.68676	-852.83107	886.34485	-771.53106	-1005.70131	971.13420	-811.16148	-952.93539	843.89290	-797.16760	-932.12330	1196.79705	-442.02746	-1111.87187	1307.68050	-520.25981	-942.43962	1198.73483	-706.13365	-1118.28751	1308.21394	-618.16155	-843.45401	1735.54660	-579.33174	-779.77170	1640.20377	-396.43709	-785.86851	1655.38496	-754.95606	-740.08541	1604.60176	-559.38136	-744.11819	1603.17123	-605.16305	-829.30342	1481.50645	-317.50190	-1005.70932	1320.69740	-302.99568	-956.64123	1336.62408	-235.41244	-904.57012	1166.72587	-239.61398	-898.44959	1046.65928	-231.00747	-924.29929	1043.08243	-198.39384	-842.61472	1501.81517	-848.06704	-1010.58010	1347.06839	-850.99285	-966.55076	1355.14718	-918.26772	-897.73606	1200.36329	-882.92926	-875.75231	1086.01442	-900.46171	-899.89884	1083.42981	-940.32772	-1040.12704	1154.89099	-474.10592	-1049.33461	1144.95543	-687.06753	-1029.95576	1153.23432	-473.52232	-1041.36276	1154.18231	-647.59410	
65	0.64000000	-864.67890	749.89828	-431.45202	-895.62541	624.86063	-450.31769	-1182.48436	441.00092	-442.55453	-1264.86463	426.53601	-489.48600	-1082.84313	348.98389	-393.55511	-1038.17839	358.21229	-467.83363	-901.41974	744.26751	-763.90855	-908.43774	628.04314	-733.70745	-1201.66611	430.65637	-724.25473	-1278.44269	420.28771	-673.47740	-1090.96682	343.01046	-757.37563	-1050.67113	357.99457	-688.14685	-972.94921	540.55379	-473.57804	-945.09618	653.22703	-398.26025	-1016.30563	560.50623	-403.87261	-968.70618	675.23473	-785.25391	-1030.59476	568.67228	-782.52670	-846.56424	1003.12204	-442.30121	-809.95974	897.96356	-456.84481	-826.08567	859.62329	-404.20855	-920.71172	964.68096	-364.15652	-878.55480	855.50808	-386.37797	-899.55072	1010.09544	-781.36244	-848.38547	880.87798	-772.06881	-1000.53621	967.27625	-810.88477	-949.34777	839.48180	-796.74999	-924.89538	1194.58077	-442.59532	-1105.30912	1303.94962	-521.18606	-934.75952	1196.54131	-707.48444	-1111.67570	1304.53416	-619.82495	-840.35805	1734.31371	-579.00084	-775.18335	1639.53284	-396.21401	-781.15012	1655.50909	-754.61180	-735.48518	1604.26870	-559.00167	-739.60780	1602.92775	-604.99172	-824.26744	1480.99781	-316.54574	-1000.62313	1320.92040	-300.03320	-951.81400	1337.37606	-232.39858	-899.60996	1167.29964	-235.17649	-893.10905	1047.55448	-225.68257	-919.08415	1044.05457	-193.20174	-837.05686	1502.59270	-848.81888	-1005.40387	1347.73541	-855.27359	-960.12158	1356.21810	-921.50528	-891.71669	1201.41138	-885.55912	-869.51742	1086.97290	-902.65027	-892.54747	1084.77323	-943.35916	-1032.48276	1151.78830	-475.29405	-1041.20316	1141.85736	-688.27582	-1022.32612	1149.96084	-474.36424	-1033.59538	1150.99546	-648.95120	
